<svg width="87" height="87" viewBox="0 0 87 87" fill="none" xmlns="http://www.w3.org/2000/svg">
<path fill-rule="evenodd" clip-rule="evenodd" d="M48.8759 16.2038C49.3857 15.6947 50.0767 15.4087 50.7971 15.4087C51.5176 15.4087 52.2086 15.6947 52.7184 16.2038L78.0499 41.5788C78.559 42.0885 78.845 42.7795 78.845 43.5C78.845 44.2205 78.559 44.9115 78.0499 45.4213L52.7184 70.7962C52.2059 71.2917 51.5192 71.5661 50.8064 71.5602C50.0935 71.5544 49.4115 71.2688 48.9072 70.7649C48.4029 70.2611 48.1166 69.5793 48.1101 68.8665C48.1036 68.1536 48.3773 67.4667 48.8723 66.9537L69.5674 46.2224L10.875 46.2623C10.154 46.2632 9.46205 45.9777 8.9515 45.4685C8.44096 44.9593 8.1536 44.2682 8.15264 43.5471C8.15167 42.8261 8.43719 42.1342 8.94638 41.6236C9.45556 41.1131 10.1467 40.8257 10.8678 40.8248L69.571 40.7885L48.8686 20.0463C48.3595 19.5365 48.0735 18.8455 48.0735 18.125C48.0735 17.4046 48.3595 16.7136 48.8686 16.2038" fill="white"/>
</svg>
