<svg width="17" height="16" viewBox="0 0 17 16" fill="none" xmlns="http://www.w3.org/2000/svg">
<path d="M3.78329 2.16667C3.78306 2.6087 3.60726 3.03253 3.29454 3.34494C2.98182 3.65734 2.55781 3.83272 2.11578 3.8325C1.67376 3.83228 1.24992 3.65647 0.937517 3.34376C0.625113 3.03104 0.44973 2.60703 0.449951 2.165C0.450172 1.72297 0.625979 1.29914 0.938696 0.986735C1.25141 0.67433 1.67542 0.498948 2.11745 0.499169C2.55948 0.49939 2.98331 0.675196 3.29572 0.987913C3.60812 1.30063 3.78351 1.72464 3.78329 2.16667ZM3.83329 5.06667H0.499951V15.5H3.83329V5.06667ZM9.09995 5.06667H5.78329V15.5H9.06662V10.025C9.06662 6.975 13.0416 6.69167 13.0416 10.025V15.5H16.3333V8.89167C16.3333 3.75 10.45 3.94167 9.06662 6.46667L9.09995 5.06667Z" fill="white"/>
</svg>
