<svg width="93" height="93" viewBox="0 0 93 93" fill="none" xmlns="http://www.w3.org/2000/svg">
<path d="M60.0625 54.25H57.0013L55.9163 53.2037C58.3379 50.3903 60.1078 47.0765 61.0993 43.4992C62.0907 39.922 62.2792 36.1698 61.6513 32.5112C59.83 21.7387 50.84 13.1362 39.99 11.8187C36.1755 11.3361 32.3012 11.7326 28.6635 12.9777C25.0258 14.2228 21.7211 16.2836 19.0023 19.0023C16.2836 21.7211 14.2228 25.0257 12.9777 28.6634C11.7326 32.3011 11.3362 36.1755 11.8187 39.99C13.1362 50.84 21.7387 59.83 32.5113 61.6512C36.1698 62.2791 39.922 62.0907 43.4993 61.0992C47.0765 60.1078 50.3904 58.3379 53.2038 55.9162L54.25 57.0012V60.0625L70.7188 76.5312C72.3075 78.1199 74.9038 78.1199 76.4925 76.5312C78.0813 74.9424 78.0813 72.3462 76.4925 70.7575L60.0625 54.25ZM36.8125 54.25C27.1638 54.25 19.375 46.4612 19.375 36.8125C19.375 27.1637 27.1638 19.375 36.8125 19.375C46.4613 19.375 54.25 27.1637 54.25 36.8125C54.25 46.4612 46.4613 54.25 36.8125 54.25Z" fill="black"/>
</svg>
