<svg width="22" height="17" viewBox="0 0 22 17" fill="none" xmlns="http://www.w3.org/2000/svg">
<path d="M19.7681 4.25C19.7681 4.40179 19.7681 4.62946 19.7681 4.78125C19.7681 10.4732 15.2246 17 6.93478 17C4.38406 17 1.99275 16.317 0 15.1027C0.318841 15.1027 0.717391 15.1786 1.11594 15.1786C3.26812 15.1786 5.18116 14.4955 6.69565 13.3571C4.7029 13.3571 3.02899 12.067 2.47101 10.3973C2.71014 10.4732 3.02899 10.4732 3.34783 10.4732C3.74638 10.4732 4.14493 10.3973 4.54348 10.3214C2.47101 9.86607 0.876812 8.12054 0.876812 6.07143C0.876812 6.07143 0.876812 6.07143 0.876812 5.99554C1.51449 6.29911 2.15217 6.52679 2.94928 6.52679C1.75362 5.76786 0.956522 4.47768 0.956522 2.95982C0.956522 2.20089 1.19565 1.44196 1.5942 0.834821C3.82609 3.41518 7.17391 5.16071 10.9203 5.3125C10.8406 5.00893 10.8406 4.70536 10.8406 4.32589C10.8406 1.97321 12.8333 0 15.3841 0C16.6594 0 17.8551 0.53125 18.6522 1.36607C19.6884 1.13839 20.6449 0.834822 21.5217 0.303572C21.2029 1.29018 20.4855 2.125 19.529 2.65625C20.3261 2.58036 21.2029 2.35268 22 2.04911C21.3623 2.88393 20.6449 3.64286 19.7681 4.25Z" fill="black"/>
</svg>
